<?xml version="1.0" standalone="no"?>
<!DOCTYPE svg PUBLIC "-//W3C//DTD SVG 1.1//EN" "http://www.w3.org/Graphics/SVG/1.1/DTD/svg11.dtd">
<svg width="100%" height="100%" viewBox="0 0 1000 362" version="1.1" xmlns="http://www.w3.org/2000/svg" xmlns:xlink="http://www.w3.org/1999/xlink" xml:space="preserve" style="fill-rule:evenodd;clip-rule:evenodd;stroke-linejoin:round;stroke-miterlimit:1.41421;">
    <g id="Layer1">
        <path id="Shape" d="M73.6155,195.544L8.06,130.978L8.06,208.3L68.0192,208.3C69.0471,203.672 70.9886,199.269 73.6154,195.544L73.6155,195.544ZM68.4581,221.746L8.06,221.746C9.43529,242.905 17.9163,262.005 31.096,277.217L73.6155,234.785C71.2087,230.782 69.2604,226.436 68.4582,221.746L68.4581,221.746ZM162.704,145.609C147.721,132.544 128.507,124.063 107.234,122.573L107.234,182.742C112.037,183.659 116.269,185.378 119.929,188.128L162.704,145.609L162.704,145.609ZM129.086,233.474L171.031,275.536C183.514,260.763 191.386,242.27 192.96,221.747L133.921,221.747C132.797,226.144 131.335,229.979 129.086,233.474L129.086,233.474ZM134.472,208.299L194.641,208.299C193.266,187.141 184.785,168.041 171.605,152.829L129.086,195.261C131.607,199.264 133.441,203.724 134.472,208.299L134.472,208.299ZM39.9973,286.117C54.9799,299.182 74.1942,307.663 95.4673,309.153L95.4673,248.984C90.6637,248.067 86.432,246.348 82.7721,243.597L39.9973,286.117L39.9973,286.117ZM108.915,248.986L108.915,309.155C130.188,307.779 149.402,299.184 164.385,286.119L122.067,243.599C117.95,246.35 113.604,248.069 108.915,248.986L108.915,248.986ZM8.28882,111.251C24.4203,127.291 75.1028,177.915 83.5689,186.447C87.2299,184.4 91.0054,182.579 95.4672,181.669L95.4672,83.7206L8.05993,6.59015C8.05993,6.70391 8.28874,108.862 8.28874,111.251L8.28882,111.251Z" style="fill:rgb(0,159,227);"/>
        <path d="M448.385,275.115C448.681,275.114 448.976,275.109 449.271,275.097C449.855,275.074 450.438,275.028 451.019,274.96C454.001,274.612 456.907,273.705 459.616,272.421C460.429,272.035 461.227,271.614 462.004,271.158C463.125,270.501 464.204,269.772 465.222,268.965L465.298,268.904L461.068,263.063C460.982,263.141 460.895,263.218 460.808,263.294C460.338,263.699 459.853,264.084 459.347,264.444C457.613,265.676 455.677,266.627 453.633,267.221C452.004,267.694 450.311,267.936 448.615,267.946C447.34,267.953 446.061,267.827 444.82,267.525C444.064,267.341 443.322,267.092 442.611,266.775C441.956,266.483 441.327,266.133 440.732,265.731C440.1,265.304 439.509,264.817 438.964,264.283C438.693,264.019 438.436,263.742 438.188,263.457L438.115,263.373C437.843,263.034 437.579,262.69 437.329,262.335C436.825,261.619 436.37,260.868 435.974,260.087C435.192,258.546 434.641,256.894 434.327,255.195C434.1,253.97 433.999,252.726 433.996,251.48L433.996,170.756L462.549,170.756L462.549,163.599L433.996,163.599L433.996,126.398L426.669,126.398L426.669,163.599L411.432,163.599L411.432,170.627L426.669,170.627C426.669,197.588 426.593,224.549 426.67,251.511C426.679,252.81 426.757,254.109 426.927,255.397C427.206,257.514 427.723,259.602 428.515,261.586C429.066,262.965 429.749,264.291 430.557,265.537C431.394,266.827 432.365,268.028 433.447,269.119C434.662,270.344 436.019,271.429 437.502,272.312C438.601,272.966 439.765,273.508 440.972,273.93C442.299,274.394 443.676,274.712 445.069,274.9C446.021,275.028 446.979,275.094 447.94,275.112C448.088,275.114 448.237,275.115 448.385,275.116L448.385,275.115Z" style="fill:rgb(138,180,38);"/>
        <rect x="390.821" y="163.57" width="6.96436" height="110.421" style="fill:rgb(138,180,38);"/>
        <path d="M559.302,273.987L566.919,273.987C566.919,250.439 566.839,226.89 566.919,203.342C566.924,202.843 566.937,202.345 566.963,201.847C567.017,200.793 567.12,199.741 567.27,198.696C567.542,196.801 567.966,194.927 568.53,193.097C568.744,192.402 568.981,191.714 569.233,191.031L569.302,190.847L569.376,190.654C569.455,190.462 569.534,190.271 569.615,190.081C569.934,189.337 570.275,188.602 570.642,187.881C571.606,185.99 572.741,184.187 574.046,182.513C574.487,181.946 574.947,181.395 575.427,180.861C575.6,180.668 575.776,180.476 575.954,180.288C576.007,180.232 576.181,180.049 576.233,179.997C576.421,179.808 576.615,179.624 576.809,179.441C577.285,178.991 577.773,178.553 578.272,178.13C580.089,176.591 582.066,175.242 584.186,174.156C584.73,173.877 585.283,173.616 585.844,173.372C586.157,173.235 586.474,173.106 586.791,172.979C587.04,172.879 587.288,172.78 587.539,172.686C588.176,172.447 588.821,172.23 589.472,172.034C591.542,171.409 593.673,170.996 595.822,170.769C597.536,170.588 599.265,170.52 600.988,170.573C602.821,170.63 604.65,170.823 606.457,171.132C607.871,171.375 609.272,171.689 610.652,172.08C611.249,172.249 611.841,172.432 612.428,172.631C612.619,172.696 612.81,172.763 613,172.831C613.066,172.855 613.331,172.951 613.392,172.975C613.452,172.998 613.715,173.108 613.78,173.136C614.088,173.266 614.395,173.402 614.699,173.542C617.101,174.652 619.359,176.071 621.399,177.756C622.002,178.254 622.586,178.776 623.149,179.319C623.289,179.455 623.428,179.591 623.565,179.729C623.654,179.818 623.74,179.908 623.828,179.997C623.965,180.135 624.104,180.271 624.24,180.411C624.517,180.696 624.789,180.987 625.055,181.284C625.896,182.225 626.675,183.222 627.386,184.265C628.326,185.645 629.148,187.106 629.843,188.624C630.148,189.291 630.427,189.968 630.685,190.654C630.757,190.827 630.757,190.827 630.828,191.001C630.977,191.375 631.121,191.75 631.256,192.129C631.551,192.958 631.809,193.8 632.032,194.651C632.558,196.663 632.888,198.725 633.041,200.798C633.109,201.715 633.14,202.635 633.142,203.555L633.142,273.987L641.155,273.987C641.155,250.421 641.215,226.855 641.154,203.289C641.144,202.15 641.1,201.013 641.006,199.878C640.845,197.93 640.549,195.994 640.103,194.091C639.76,192.629 639.329,191.187 638.808,189.778C638.635,189.308 638.452,188.842 638.259,188.38C638.152,188.126 638.042,187.872 637.931,187.62C637.872,187.425 637.812,187.231 637.751,187.038C637.565,186.459 637.363,185.886 637.142,185.319C636.808,184.465 636.433,183.627 636.019,182.808C635.259,181.305 634.365,179.872 633.377,178.509C632.63,177.477 631.828,176.484 630.994,175.521C630.73,175.217 630.463,174.915 630.193,174.616C630.183,174.605 629.912,174.304 629.889,174.28C629.854,174.244 629.588,173.988 629.562,173.963C629.387,173.795 629.211,173.63 629.033,173.466C628.504,172.977 627.96,172.505 627.403,172.049C626.108,170.988 624.738,170.018 623.313,169.14C622.054,168.365 620.753,167.661 619.422,167.018C618.651,166.646 617.871,166.294 617.083,165.96C616.687,165.792 616.292,165.625 615.891,165.469C615.249,165.217 614.598,164.987 613.941,164.775C612.242,164.226 610.503,163.803 608.747,163.482C607.219,163.203 605.676,163.003 604.128,162.876C603.126,162.793 602.122,162.741 601.117,162.719C599.708,162.688 598.298,162.718 596.893,162.82C594.503,162.993 592.128,163.372 589.806,163.96C587.403,164.567 585.058,165.399 582.807,166.436C581.782,166.908 580.776,167.422 579.792,167.975C579.323,168.239 578.859,168.513 578.398,168.793L578.259,168.878C577.558,169.34 576.866,169.815 576.187,170.309C574.578,171.48 573.038,172.749 571.612,174.138C571.068,174.668 570.541,175.215 570.034,175.781C569.782,176.062 569.536,176.348 569.293,176.638L569.173,176.783L568.18,177.997L566.919,179.729L566.919,93.3644L559.302,93.3644C559.302,153.572 559.302,213.78 559.302,273.987L559.302,273.987Z" style="fill:rgb(0,159,227);"/>
        <path d="M687.135,267.43C686.011,267.427 684.888,267.388 683.767,267.295C681.682,267.123 679.608,266.771 677.6,266.18C675.727,265.63 673.909,264.873 672.223,263.887C670.191,262.699 668.349,261.185 666.792,259.419C666.358,258.928 665.949,258.416 665.561,257.888L665.5,257.804C665.412,257.696 665.324,257.587 665.238,257.478C665.144,257.357 665.144,257.358 665.051,257.236C664.561,256.587 664.108,255.911 663.696,255.21C662.884,253.827 662.22,252.359 661.667,250.854C661.498,250.393 661.339,249.928 661.188,249.46L661.129,249.274C660.946,248.47 660.762,247.666 660.582,246.861C660.526,246.608 660.471,246.355 660.417,246.101C660.256,245.341 660.105,244.579 659.988,243.811C659.898,243.22 659.828,242.626 659.8,242.029C659.782,241.642 659.786,241.254 659.792,240.866C659.8,240.325 659.819,239.784 659.85,239.244C659.97,237.169 660.269,235.106 660.738,233.081C660.887,232.434 661.054,231.791 661.235,231.152C661.292,230.953 661.35,230.755 661.41,230.556C661.456,230.403 661.505,230.251 661.548,230.097C661.584,229.97 661.621,229.843 661.66,229.716C661.944,228.8 662.302,227.909 662.734,227.053C663.5,225.535 664.482,224.134 665.598,222.854C666.309,222.039 667.073,221.271 667.874,220.544C668.152,220.293 668.434,220.046 668.719,219.804C668.775,219.757 669.039,219.534 669.088,219.495C669.146,219.449 669.206,219.406 669.264,219.362C669.371,219.283 669.473,219.207 669.581,219.129C669.847,218.935 670.117,218.747 670.39,218.563C671.392,217.887 672.437,217.275 673.513,216.724C675.48,215.718 677.549,214.918 679.666,214.286C681.844,213.636 684.073,213.162 686.319,212.819C688.101,212.547 689.894,212.358 691.691,212.234C693.947,212.077 696.21,212.025 698.471,212.044C701.36,212.068 704.249,212.203 707.129,212.427C710.748,212.709 714.355,213.132 717.945,213.664C720.881,214.099 723.805,214.607 726.718,215.176C727.666,215.36 728.612,215.552 729.557,215.749C730.257,215.895 730.956,216.045 731.656,216.194C731.656,219.858 731.672,223.523 731.655,227.188C731.635,229.482 731.468,231.773 731.179,234.049C731.021,235.289 730.826,236.523 730.603,237.753C730.585,237.908 730.584,237.908 730.565,238.063C730.5,238.53 730.421,238.994 730.32,239.454C730.135,240.3 729.882,241.132 729.574,241.942C729.058,243.301 728.386,244.596 727.629,245.835C727.191,246.552 726.724,247.249 726.243,247.936C726.132,248.102 726.02,248.267 725.908,248.431C725.523,248.987 725.125,249.534 724.711,250.068C723.9,251.11 723.031,252.107 722.111,253.055C721.215,253.979 720.269,254.855 719.283,255.682C718.747,256.132 718.198,256.566 717.64,256.989C717.431,257.14 717.222,257.29 717.013,257.44C716.399,257.876 715.781,258.309 715.156,258.73C713.727,259.694 712.265,260.61 710.751,261.436C710.063,261.812 709.365,262.169 708.655,262.503C708.384,262.63 708.112,262.754 707.838,262.874C707.732,262.921 707.626,262.965 707.52,263.012C707.186,263.158 706.852,263.304 706.516,263.443C705.12,264.019 703.691,264.509 702.246,264.942C700.748,265.391 699.233,265.781 697.72,266.174L697.023,266.355C695.436,266.648 693.845,266.916 692.242,267.108C690.747,267.288 689.244,267.399 687.738,267.425C687.537,267.427 687.336,267.429 687.135,267.429L687.135,267.43ZM687.917,274.968C688.629,274.967 689.34,274.951 690.051,274.92C692.121,274.827 694.184,274.603 696.229,274.266C697.625,274.037 699.011,273.752 700.388,273.424C701.741,273.103 703.086,272.741 704.418,272.342C706.168,271.818 707.898,271.229 709.606,270.581C710.506,270.24 711.403,269.887 712.287,269.505C712.86,269.258 713.429,268.997 713.992,268.725C716.494,267.514 718.889,266.079 721.154,264.468C721.735,264.054 722.306,263.628 722.87,263.192L723.038,263.06L723.192,262.939C723.408,262.758 723.623,262.576 723.838,262.393C724.924,261.462 725.992,260.511 727.03,259.527C728.061,258.55 729.063,257.542 730.014,256.487L730.11,256.38L731.11,255.253L732.307,253.934L732.307,273.921L739.79,273.921L739.779,211.566C739.779,211.566 739.496,201.769 738.819,196.918C738.67,195.853 738.498,194.791 738.303,193.733L738.257,193.485C737.265,189.608 735.991,185.793 734.278,182.173C733.754,181.066 733.189,179.979 732.578,178.917C732.365,178.547 732.146,178.18 731.922,177.816C731.903,177.785 731.697,177.453 731.668,177.411C731.639,177.367 731.41,177.052 731.388,177.021C731.237,176.815 731.084,176.61 730.93,176.406C730.466,175.796 729.985,175.2 729.484,174.62C727.876,172.755 726.069,171.062 724.082,169.606C723.135,168.912 722.148,168.272 721.129,167.687C720.477,167.313 719.812,166.964 719.137,166.635L719.029,166.583C716.272,165.4 713.386,164.53 710.45,163.919C706.637,163.125 702.738,162.766 698.844,162.766C696.714,162.766 694.583,162.886 692.461,163.072C690.444,163.249 688.431,163.49 686.427,163.78C685.904,163.856 685.382,163.935 684.86,164.017C684.317,164.103 683.774,164.191 683.233,164.289C682.199,164.476 681.17,164.689 680.146,164.925C678.362,165.335 676.594,165.815 674.843,166.348C672.543,167.049 670.271,167.843 668.03,168.713C667.183,169.042 666.342,169.382 665.503,169.731L663.74,170.537L666.912,177.715L668.419,176.958C669.099,176.668 669.781,176.382 670.466,176.104C672.753,175.178 675.073,174.329 677.431,173.597C679.511,172.952 681.622,172.397 683.76,171.979C684.439,171.846 685.12,171.729 685.804,171.624C686.315,171.563 686.827,171.503 687.338,171.444C689.312,171.22 691.287,171.011 693.266,170.849C694.83,170.721 696.398,170.619 697.967,170.581C699.155,170.552 700.344,170.567 701.532,170.61C703.4,170.679 705.266,170.829 707.117,171.094C708.68,171.317 710.233,171.622 711.755,172.04C712.903,172.355 714.034,172.734 715.131,173.2C716.586,173.818 717.975,174.59 719.276,175.49C720.683,176.462 721.986,177.582 723.173,178.812C723.789,179.451 724.372,180.12 724.928,180.811L725.044,180.957C725.088,181.013 725.133,181.067 725.175,181.124C725.219,181.184 725.261,181.245 725.304,181.306C725.379,181.413 725.457,181.527 725.531,181.635C725.681,181.857 725.827,182.082 725.97,182.309C726.44,183.06 726.868,183.836 727.259,184.63C728.397,186.941 729.219,189.399 729.82,191.9C729.961,192.485 730.088,193.073 730.206,193.662C730.29,194.17 730.373,194.677 730.454,195.185C730.748,197.048 731.021,198.913 731.245,200.786C731.466,202.628 731.642,204.475 731.759,206.327L731.772,206.545L731.855,207.978L731.855,208.307C731.085,208.156 730.009,207.942 729.239,207.793C728.687,207.687 728.136,207.581 727.584,207.477C723.247,206.665 718.894,205.935 714.517,205.369C711.19,204.938 707.85,204.602 704.5,204.41C701.797,204.256 699.088,204.2 696.381,204.268C692.371,204.368 688.361,204.732 684.416,205.467C681.379,206.034 678.378,206.822 675.481,207.9C672.951,208.842 670.499,210.006 668.207,211.434C667.551,211.843 666.908,212.272 666.282,212.724C665.977,212.944 665.674,213.166 665.379,213.398C665.357,213.416 665.159,213.579 665.143,213.592C664.98,213.727 664.817,213.863 664.656,214.001C664.221,214.371 663.794,214.749 663.376,215.137C661.988,216.424 660.691,217.811 659.532,219.309C658.171,221.068 657.003,222.983 656.126,225.029C655.883,225.596 655.663,226.172 655.468,226.757C655.311,227.225 655.173,227.699 655.036,228.173C654.857,228.799 654.686,229.428 654.524,230.059C653.902,232.487 653.416,234.956 653.156,237.451C653.029,238.666 652.957,239.887 652.956,241.109C652.954,242.912 653.103,244.715 653.381,246.497C653.552,247.586 653.771,248.668 654.034,249.739C654.122,250.101 654.216,250.461 654.315,250.82C654.366,251.008 654.421,251.196 654.473,251.384C654.523,251.564 654.572,251.745 654.623,251.925C654.657,252.043 654.691,252.161 654.726,252.278C654.944,252.991 655.185,253.695 655.455,254.39C656.155,256.19 657.031,257.921 658.05,259.562C658.4,260.126 658.768,260.678 659.151,261.22C659.345,261.493 659.543,261.764 659.744,262.031C659.828,262.142 659.914,262.252 659.998,262.363C660.099,262.496 660.198,262.631 660.3,262.763C660.36,262.84 660.42,262.917 660.481,262.993C660.815,263.409 661.16,263.814 661.521,264.206C662.571,265.349 663.731,266.39 664.951,267.348C666.218,268.343 667.553,269.251 668.926,270.093C669.477,270.431 670.036,270.756 670.598,271.076L670.795,271.186C672.745,272.19 674.805,272.969 676.919,273.552C679.47,274.256 682.095,274.675 684.734,274.859C685.631,274.921 686.53,274.954 687.429,274.966C687.592,274.967 687.754,274.968 687.917,274.968L687.917,274.968Z" style="fill:rgb(0,159,227);"/>
        <path d="M326.411,267.692C325.599,267.69 324.787,267.676 323.975,267.642C321.375,267.534 318.781,267.248 316.229,266.738C314.317,266.356 312.428,265.848 310.593,265.188C309.735,264.88 308.892,264.537 308.061,264.163L307.948,264.111C307.787,264.043 307.626,263.974 307.465,263.904C307.299,263.831 307.134,263.757 306.968,263.683C306.559,263.496 306.151,263.304 305.748,263.104C304.87,262.669 304.008,262.201 303.165,261.701C300.768,260.281 298.525,258.606 296.471,256.724C295.966,256.26 295.471,255.784 294.989,255.296C294.746,255.051 294.504,254.804 294.27,254.552C294.023,254.286 293.784,254.014 293.546,253.741C293.136,253.268 292.737,252.786 292.349,252.295C290.346,249.757 288.656,246.985 287.231,244.086C286.741,243.089 286.281,242.078 285.848,241.055C285.737,240.795 285.629,240.535 285.522,240.274C285.494,240.206 285.32,239.777 285.299,239.72C285.292,239.702 285.206,239.447 285.195,239.416C285.148,239.275 285.102,239.133 285.056,238.992C284.901,238.506 284.755,238.017 284.619,237.526C284.224,236.107 283.899,234.668 283.621,233.221C283.271,231.391 282.997,229.546 282.783,227.696C282.553,225.707 282.394,223.71 282.306,221.71C282.184,218.957 282.202,216.198 282.402,213.449C282.639,210.181 283.133,206.932 283.896,203.745C284.151,202.678 284.435,201.619 284.749,200.568C284.92,199.994 285.097,199.422 285.286,198.853C285.363,198.622 285.447,198.393 285.531,198.165C285.711,197.67 285.9,197.18 286.099,196.693C287.498,193.268 289.355,190.039 291.558,187.069C292.144,186.28 292.753,185.508 293.385,184.755C293.555,184.552 293.728,184.35 293.901,184.149C293.972,184.068 294.187,183.821 294.257,183.743C294.33,183.662 294.554,183.422 294.631,183.34C294.938,183.013 295.251,182.692 295.569,182.375C296.642,181.307 297.774,180.298 298.959,179.355C301.024,177.712 303.247,176.267 305.588,175.048C307.234,174.19 308.936,173.44 310.689,172.829C313.028,172.013 315.444,171.421 317.886,171.013C320.131,170.639 322.401,170.42 324.676,170.353C325.658,170.324 326.64,170.324 327.622,170.35C329.112,170.39 330.599,170.489 332.08,170.652C333.56,170.815 335.033,171.042 336.492,171.344C338.8,171.822 341.078,172.485 343.247,173.411C343.626,173.573 344.001,173.743 344.373,173.921C344.534,173.993 344.694,174.066 344.855,174.139C345.998,174.668 347.122,175.234 348.219,175.854C350.21,176.98 352.111,178.267 353.877,179.722C354.825,180.503 355.734,181.331 356.599,182.202C356.91,182.515 357.215,182.834 357.515,183.159C357.693,183.352 357.867,183.548 358.043,183.743C358.161,183.875 358.281,184.005 358.399,184.137C358.698,184.473 358.991,184.815 359.278,185.161C360.08,186.131 360.835,187.139 361.543,188.18C363.036,190.377 364.317,192.713 365.432,195.122C365.79,195.895 366.13,196.676 366.456,197.463C366.566,197.728 366.674,197.995 366.781,198.262C366.816,198.349 366.965,198.725 366.997,198.809C367.106,199.095 367.209,199.383 367.311,199.672C367.513,200.242 367.704,200.817 367.886,201.394C368.522,203.422 369.03,205.489 369.411,207.58C370.176,211.78 370.42,216.061 370.304,220.325C370.257,222.059 370.152,223.792 369.995,225.52C369.742,228.288 369.358,231.046 368.808,233.771C368.538,235.109 368.226,236.44 367.859,237.755C367.747,238.155 367.63,238.554 367.508,238.952C367.432,239.197 367.356,239.442 367.274,239.686C367.18,239.962 367.081,240.236 366.98,240.509C366.75,241.135 366.504,241.756 366.243,242.371C365.413,244.33 364.435,246.226 363.33,248.044C362.372,249.62 361.319,251.138 360.181,252.589C359.868,252.988 359.548,253.381 359.223,253.769C359.007,254.027 358.79,254.284 358.566,254.535C358.542,254.562 358.401,254.714 358.373,254.745C358.25,254.877 358.127,255.007 358.002,255.137C357.631,255.525 357.25,255.905 356.862,256.275C355.461,257.611 353.953,258.834 352.364,259.94C350.797,261.031 349.151,262.007 347.453,262.88C346.914,263.157 346.369,263.424 345.82,263.68C345.503,263.828 345.186,263.977 344.864,264.115C344.609,264.225 344.349,264.328 344.091,264.431C343.659,264.602 343.224,264.765 342.786,264.922C341.526,265.372 340.244,265.762 338.949,266.098C335.849,266.902 332.668,267.399 329.472,267.597C328.656,267.648 327.84,267.676 327.024,267.688C326.819,267.69 326.615,267.692 326.411,267.692L326.411,267.692ZM326.148,275.083C329.425,275.079 332.701,274.783 335.927,274.205C338.492,273.746 341.028,273.111 343.497,272.277C344.427,271.963 345.347,271.621 346.254,271.247C347.188,270.861 348.108,270.442 349.015,269.999C350.607,269.223 352.159,268.366 353.659,267.424C356.171,265.848 358.534,264.036 360.697,262.007C361.9,260.879 363.037,259.684 364.115,258.438C365.144,257.248 366.12,256.013 367.039,254.737C369.599,251.185 371.718,247.31 373.278,243.217C374.276,240.598 375.025,237.888 375.628,235.153C376.252,232.323 376.72,229.458 377.047,226.578C377.429,223.219 377.616,219.836 377.547,216.454C377.452,211.827 376.903,207.204 375.831,202.7C375.445,201.078 374.992,199.473 374.469,197.89C374.235,197.181 373.986,196.478 373.726,195.779C373.656,195.578 373.585,195.376 373.514,195.176C373.09,194 372.622,192.84 372.107,191.7C370.524,188.194 368.521,184.88 366.18,181.829C364.489,179.625 362.624,177.552 360.58,175.67C357.907,173.21 354.945,171.067 351.804,169.246C350.907,168.726 349.996,168.233 349.07,167.765C348.52,167.487 347.965,167.216 347.405,166.959C347.263,166.894 347.119,166.833 346.976,166.771C346.632,166.623 346.286,166.479 345.938,166.34C344.927,165.934 343.902,165.565 342.866,165.231C339.852,164.26 336.746,163.579 333.607,163.166C331.992,162.953 330.368,162.811 328.74,162.74C326.557,162.644 324.367,162.675 322.187,162.822C315.814,163.251 309.472,164.706 303.673,167.418C302.885,167.787 302.107,168.179 301.342,168.594C300.238,169.193 299.16,169.842 298.114,170.538C297.654,170.845 297.201,171.162 296.753,171.486C296.594,171.595 296.436,171.705 296.278,171.815C295.516,172.356 294.769,172.916 294.042,173.502C292.447,174.788 290.943,176.187 289.544,177.684C288.339,178.974 287.211,180.335 286.168,181.759C285.619,182.507 285.097,183.274 284.594,184.054L283.68,185.491L282.227,187.921L282.227,94.4606L274.604,94.4606L274.604,273.924L282.096,273.924L282.096,250.19L283.494,252.282L284.453,253.681C284.778,254.149 285.107,254.614 285.444,255.074C286.277,256.208 287.153,257.312 288.071,258.379C289.945,260.556 291.999,262.579 294.212,264.41C294.714,264.825 295.223,265.23 295.74,265.624C296.035,265.85 296.332,266.073 296.633,266.291C297.016,266.568 297.406,266.834 297.799,267.096C298.655,267.666 299.531,268.205 300.426,268.713C305.123,271.381 310.294,273.163 315.601,274.141C317.654,274.52 319.728,274.78 321.809,274.929C322.911,275.008 324.015,275.054 325.12,275.075C325.463,275.08 325.805,275.083 326.148,275.083L326.148,275.083Z" style="fill:rgb(138,180,38);"/>
        <path d="M509.552,275.115C512.237,275.112 514.924,274.954 517.58,274.542C518.558,274.391 519.531,274.205 520.495,273.981C521.025,273.858 521.551,273.721 522.075,273.576C522.224,273.545 522.373,273.514 522.523,273.482C523.125,273.35 523.725,273.206 524.321,273.044C525.425,272.745 526.515,272.392 527.585,271.988C529.055,271.433 530.489,270.78 531.873,270.036C532.545,269.674 533.204,269.29 533.852,268.887C534.009,268.783 534.165,268.678 534.321,268.572C534.953,268.136 535.573,267.683 536.176,267.207C537.175,266.416 538.126,265.565 539.018,264.654C540.023,263.628 540.952,262.527 541.798,261.366C542.311,260.661 542.803,259.937 543.232,259.177C543.97,257.869 544.533,256.469 544.947,255.027C545.354,253.61 545.618,252.155 545.777,250.691C545.879,249.742 545.938,248.789 545.962,247.836C545.978,247.155 545.976,246.475 545.968,245.794C545.958,244.89 545.934,243.987 545.887,243.085C545.817,241.747 545.697,240.41 545.497,239.085C545.297,237.766 545.015,236.458 544.642,235.177C544.482,234.628 544.306,234.084 544.116,233.545C544.042,233.338 543.967,233.132 543.889,232.927C543.868,232.87 543.848,232.813 543.824,232.757C543.807,232.716 543.652,232.393 543.64,232.368C543.51,232.099 543.376,231.832 543.237,231.567C542.842,230.813 542.41,230.078 541.927,229.376C541.334,228.515 540.663,227.71 539.922,226.972C539.081,226.133 538.159,225.38 537.225,224.646C536.904,224.394 536.583,224.142 536.256,223.898C535.884,223.619 535.505,223.35 535.121,223.089C533.798,222.191 532.406,221.397 530.97,220.699C529.989,220.222 528.988,219.79 527.97,219.4C527.684,219.29 527.398,219.184 527.11,219.081C526.873,218.997 526.635,218.916 526.399,218.83C526.179,218.75 525.958,218.671 525.737,218.594C523.274,217.732 520.767,217.002 518.272,216.24C517.923,216.133 517.575,216.025 517.226,215.917C516.881,215.808 516.537,215.699 516.192,215.589L515.851,215.478L515.535,215.374L508.712,213.421C508.465,213.359 508.218,213.296 507.971,213.232C507.713,213.165 507.456,213.096 507.198,213.027C505.6,212.591 504.01,212.123 502.418,211.666C501.969,211.537 501.52,211.41 501.07,211.284C500.779,211.204 500.489,211.124 500.198,211.045C500.026,210.978 499.853,210.91 499.68,210.842C498.051,210.188 496.451,209.462 494.897,208.645C494.364,208.365 493.836,208.075 493.316,207.77C493.174,207.686 493.031,207.601 492.89,207.515C492.849,207.49 492.634,207.358 492.621,207.35C492.569,207.313 492.52,207.269 492.47,207.229C492.34,207.125 492.211,207.019 492.083,206.912C491.759,206.642 491.442,206.364 491.132,206.077C490.015,205.042 488.995,203.899 488.12,202.651C487.51,201.783 486.963,200.865 486.543,199.889C486.07,198.786 485.739,197.626 485.502,196.451C485.188,194.894 485.039,193.306 484.996,191.72C484.969,190.721 484.983,189.72 485.072,188.723C485.233,186.933 485.63,185.156 486.368,183.512C486.588,183.022 486.837,182.546 487.116,182.087C487.29,181.8 487.477,181.522 487.668,181.246C487.959,180.828 488.261,180.418 488.575,180.016C489.164,179.263 489.791,178.54 490.458,177.855C491.065,177.23 491.704,176.636 492.378,176.083C492.675,175.84 492.979,175.606 493.288,175.38C493.414,175.297 493.539,175.215 493.666,175.134C494.152,174.826 494.647,174.532 495.152,174.255C496.567,173.481 498.054,172.837 499.589,172.34C500.389,172.081 501.202,171.864 502.024,171.686L502.127,171.664C502.26,171.625 502.393,171.586 502.526,171.548C502.677,171.506 502.828,171.464 502.98,171.424C503.336,171.331 503.694,171.243 504.053,171.162C506.047,170.715 508.085,170.46 510.126,170.362C511.077,170.316 512.029,170.312 512.981,170.326C513.844,170.339 514.707,170.369 515.569,170.417C517.218,170.509 518.865,170.67 520.497,170.927C522.012,171.165 523.517,171.485 524.986,171.925C525.54,172.091 526.087,172.276 526.629,172.477C526.757,172.526 526.884,172.576 527.011,172.624C527.343,172.751 527.675,172.875 528.006,173.002C528.749,173.292 529.488,173.591 530.221,173.906C531.653,174.522 533.061,175.194 534.431,175.938C535.578,176.561 536.699,177.234 537.785,177.96C538.438,178.397 539.076,178.855 539.703,179.329L541.104,180.333L545.504,174.38L544.193,173.385C544.039,173.262 543.885,173.14 543.73,173.018C543.581,172.901 543.431,172.785 543.281,172.669C542.834,172.329 542.383,171.994 541.925,171.668C541.103,171.082 540.262,170.522 539.404,169.99C537.431,168.765 535.371,167.684 533.252,166.736C532.366,166.339 531.469,165.966 530.564,165.612C530.235,165.484 529.905,165.358 529.574,165.235C529.539,165.222 529.143,165.076 529.097,165.06C529.034,165.038 528.69,164.932 528.635,164.915C526.371,164.219 524.044,163.738 521.7,163.406C519,163.024 516.273,162.838 513.547,162.784C511.66,162.746 509.772,162.766 507.889,162.891C505.876,163.025 503.868,163.275 501.892,163.688C501.199,163.834 500.51,164.001 499.826,164.187L499.641,164.239L499.434,164.297C499.236,164.347 499.038,164.398 498.841,164.45C498.022,164.672 497.211,164.919 496.412,165.203C494.717,165.803 493.072,166.55 491.516,167.452C490.749,167.896 490.005,168.378 489.287,168.896C488.967,169.127 488.654,169.368 488.344,169.612C488.163,169.732 488.163,169.732 487.984,169.854C487.722,170.034 487.462,170.217 487.206,170.406C486.596,170.857 486.006,171.335 485.438,171.839C483.932,173.175 482.584,174.687 481.423,176.333C481.059,176.848 480.714,177.377 480.388,177.917C480.094,178.403 479.816,178.898 479.562,179.406C478.876,180.771 478.342,182.211 477.939,183.684C477.448,185.474 477.15,187.316 477.025,189.168C476.969,190.013 476.952,190.859 476.961,191.706C476.97,192.483 476.999,193.261 477.05,194.037C477.088,194.612 477.139,195.186 477.204,195.758C477.502,198.364 478.097,200.96 479.186,203.355C479.443,203.923 479.73,204.476 480.043,205.015L480.082,205.083C481.262,206.937 482.532,208.737 483.988,210.386C484.651,211.137 485.351,211.856 486.09,212.533C486.569,212.971 487.064,213.389 487.573,213.792C487.705,213.888 487.837,213.983 487.97,214.078C488.434,214.405 488.905,214.722 489.385,215.025C490.299,215.603 491.242,216.136 492.207,216.624C493.275,217.164 494.371,217.65 495.488,218.083C496.019,218.288 496.555,218.48 497.094,218.663L497.25,218.715C500.283,219.674 503.343,220.548 506.43,221.316L513.3,223.283C513.631,223.369 513.961,223.455 514.29,223.543C514.622,223.632 514.953,223.722 515.283,223.813C517.091,224.317 518.887,224.859 520.675,225.429C521.182,225.591 521.689,225.755 522.196,225.92C522.372,225.978 523.239,226.262 523.411,226.32C523.463,226.337 523.514,226.357 523.565,226.376C523.704,226.427 523.843,226.478 523.982,226.53C526.541,227.493 529.014,228.704 531.274,230.248L531.385,230.324L531.525,230.422C531.665,230.533 531.804,230.645 531.942,230.759C532.332,231.083 532.713,231.416 533.081,231.764C534.185,232.806 535.183,233.968 535.978,235.263C536.257,235.716 536.507,236.185 536.732,236.667L536.766,236.742C536.823,236.845 536.822,236.845 536.877,236.949C536.944,237.079 536.944,237.079 537.009,237.21C537.158,237.522 537.295,237.839 537.417,238.162C537.785,239.138 538.03,240.158 538.204,241.185C538.384,242.252 538.486,243.331 538.544,244.411C538.577,245.016 538.596,245.622 538.604,246.227C538.613,246.93 538.611,247.634 538.575,248.336C538.559,248.667 538.535,248.999 538.505,249.329C538.317,251.331 537.85,253.338 536.878,255.112C536.627,255.57 536.342,256.008 536.028,256.425C535.973,256.498 535.923,256.576 535.871,256.652C535.792,256.767 535.712,256.881 535.631,256.996C535.331,257.414 535.021,257.825 534.695,258.224C534.034,259.034 533.314,259.796 532.533,260.49C531.913,261.041 531.255,261.548 530.562,262.004C530.227,262.224 529.884,262.431 529.535,262.627L529.446,262.676C529.339,262.747 529.23,262.815 529.121,262.884C528.997,262.961 528.997,262.961 528.872,263.036C528.575,263.212 528.274,263.381 527.968,263.542C526.927,264.088 525.841,264.543 524.738,264.947C524.192,265.148 523.641,265.336 523.087,265.514C522.474,265.71 521.858,265.897 521.239,266.076C521.037,266.134 520.818,266.196 520.615,266.253C520.494,266.287 520.374,266.327 520.251,266.355C520.216,266.363 519.588,266.475 519.524,266.486C519.079,266.564 518.634,266.639 518.189,266.71C516.767,266.935 515.338,267.118 513.904,267.242C511.842,267.421 509.77,267.476 507.701,267.397C505.601,267.318 503.506,267.1 501.434,266.745C496.872,265.964 492.438,264.513 488.25,262.549C484.903,260.98 481.709,259.067 478.812,256.768C477.692,255.879 476.621,254.932 475.6,253.932L475.508,253.84L474.062,252.485L469.003,258.408C469.395,258.798 469.787,259.188 470.18,259.577C470.218,259.614 470.258,259.65 470.297,259.687C470.382,259.767 470.467,259.846 470.552,259.925C470.764,260.121 470.978,260.316 471.193,260.509C471.831,261.08 472.483,261.636 473.149,262.175C474.758,263.478 476.445,264.683 478.194,265.791C479.888,266.864 481.638,267.845 483.427,268.748C484.535,269.306 485.659,269.835 486.793,270.338C487.106,270.477 487.42,270.614 487.734,270.749C487.792,270.774 488.282,270.983 488.349,271.009C488.424,271.039 488.896,271.216 488.964,271.241C489.387,271.398 489.812,271.551 490.238,271.699C491.41,272.108 492.592,272.484 493.785,272.826C496.987,273.745 500.263,274.412 503.574,274.781C505.274,274.97 506.981,275.078 508.691,275.108C508.978,275.113 509.265,275.115 509.552,275.115L509.552,275.115Z" style="fill:rgb(0,159,227);"/>
        <path d="M754.135,273.987L761.71,273.987L761.711,201.538C761.711,201.538 761.74,199.865 761.791,199.03C761.886,197.447 762.071,195.869 762.364,194.31C762.573,193.198 762.837,192.096 763.159,191.011C763.321,190.469 763.499,189.933 763.687,189.4C763.788,189.166 763.89,188.931 763.992,188.697C764.284,188.036 764.581,187.377 764.893,186.724C765.761,184.912 766.736,183.143 767.92,181.515C768.265,181.04 768.628,180.578 769.01,180.131C769.268,179.829 769.535,179.536 769.803,179.243C770.45,178.534 771.12,177.847 771.814,177.184C773.677,175.406 775.719,173.806 777.949,172.514C779.213,171.782 780.535,171.15 781.904,170.644C783.483,170.06 785.125,169.645 786.794,169.423C788.19,169.236 789.602,169.184 791.007,169.262C793.366,169.392 795.697,169.891 797.922,170.679C799.497,171.236 801.02,171.935 802.478,172.749C803.542,173.343 804.572,173.998 805.562,174.709C805.883,174.94 806.199,175.177 806.512,175.42L806.65,175.528L806.743,175.602L809.085,168.678C808.234,168.085 807.347,167.547 806.437,167.051C805.524,166.554 804.587,166.101 803.633,165.69C800.389,164.292 796.937,163.381 793.427,162.987C792.393,162.871 791.354,162.8 790.313,162.773C789.967,162.764 789.622,162.76 789.276,162.761C789.122,162.762 788.969,162.764 788.815,162.766C788.454,162.768 788.093,162.771 787.732,162.783C787.128,162.802 786.525,162.837 785.923,162.89C784.015,163.058 782.123,163.4 780.279,163.918C778.093,164.532 775.979,165.392 773.969,166.447C773.243,166.827 772.53,167.232 771.83,167.659C771.476,167.876 771.123,168.096 770.776,168.325C770.509,168.502 770.246,168.688 769.986,168.876C769.484,169.237 768.992,169.613 768.512,170.002C767.279,171.001 766.117,172.088 765.041,173.254C764.662,173.664 764.296,174.085 763.938,174.513L762.965,175.694L761.71,177.277L761.71,163.42L754.135,163.42L754.135,273.987L754.135,273.987Z" style="fill:rgb(0,159,227);"/>
        <path d="M397.686,152.276L394.892,152.276L384.553,142.394L384.553,125.901L397.686,137.594L397.686,152.276L397.686,152.276Z" style="fill:rgb(0,159,227);"/>
        <path d="M860.65,275.115C861.83,275.113 863.01,275.091 864.189,275.039C866.708,274.929 869.223,274.697 871.717,274.326C874.28,273.944 876.822,273.414 879.32,272.724C880.856,272.3 882.374,271.813 883.872,271.27C884.101,271.196 884.329,271.121 884.557,271.044C886.025,270.543 887.466,269.972 888.875,269.325C891.068,268.318 893.178,267.138 895.19,265.812C896.844,264.722 898.432,263.533 899.949,262.262C900.705,261.629 901.441,260.973 902.164,260.302L903.527,259.121L898.594,253.482C898.105,253.882 897.615,254.282 897.127,254.683C896.911,254.86 896.697,255.039 896.481,255.216C895.97,255.629 895.453,256.036 894.928,256.432C893.797,257.285 892.631,258.094 891.434,258.853C889.029,260.378 886.499,261.704 883.883,262.84C883.219,263.128 882.549,263.405 881.874,263.67C881.53,263.805 881.186,263.939 880.839,264.066C879.724,264.476 878.593,264.842 877.451,265.167C872.844,266.477 868.06,267.124 863.275,267.299C861.272,267.373 859.265,267.374 857.265,267.253C853.995,267.054 850.734,266.536 847.602,265.573C846.413,265.207 845.243,264.779 844.104,264.281C843.521,264.026 842.948,263.75 842.379,263.465C841.902,263.226 841.428,262.982 840.957,262.731C839.328,261.863 837.737,260.922 836.204,259.897C834.389,258.685 832.654,257.353 831.032,255.897C830.575,255.487 830.126,255.067 829.688,254.638C829.559,254.511 829.44,254.393 829.312,254.266C829.24,254.193 829.166,254.124 829.097,254.049C829.074,254.023 828.764,253.658 828.729,253.615C828.501,253.346 828.277,253.074 828.055,252.8C827.327,251.901 826.629,250.979 825.963,250.035C824.813,248.403 823.763,246.703 822.828,244.942C821.907,243.207 821.101,241.413 820.42,239.573C820.149,238.84 819.904,238.099 819.674,237.353C819.291,236.113 818.955,234.859 818.663,233.595C817.882,230.217 817.416,226.77 817.217,223.312C817.141,221.989 817.107,220.665 817.104,219.341C816.992,217.632 816.957,215.822 817.05,213.84L817.054,213.835L908.165,213.835L908.004,211.858C907.991,211.626 907.978,211.393 907.963,211.161C907.886,210.034 907.78,208.91 907.64,207.789C907.366,205.593 906.97,203.412 906.473,201.255C906.017,199.276 905.475,197.316 904.862,195.379C904.52,194.298 904.153,193.225 903.771,192.157L903.667,191.872C903.634,191.781 903.602,191.69 903.567,191.599C903.525,191.487 903.394,191.161 903.35,191.051C903.238,190.774 903.123,190.499 903.006,190.224C902.621,189.321 902.208,188.43 901.766,187.552C900.819,185.67 899.743,183.852 898.545,182.115C897.425,180.491 896.2,178.937 894.883,177.464C894.199,176.698 893.491,175.953 892.756,175.235C891.898,174.396 891.003,173.592 890.076,172.827C887.736,170.896 885.191,169.213 882.509,167.781C881.774,167.389 881.029,167.016 880.275,166.661C879.772,166.424 879.266,166.194 878.755,165.977C878.156,165.723 877.549,165.488 876.936,165.27C874.888,164.543 872.774,164.007 870.635,163.62C868.173,163.176 865.676,162.928 863.176,162.831C861.645,162.771 860.11,162.762 858.579,162.822C856.365,162.908 854.156,163.131 851.971,163.494C848.906,164.002 845.886,164.783 842.966,165.837C841.179,166.481 839.431,167.23 837.728,168.068C835.315,169.255 832.995,170.629 830.814,172.196C828.778,173.659 826.867,175.29 825.107,177.068C824.109,178.076 823.163,179.133 822.261,180.225C821.692,180.915 821.141,181.619 820.607,182.336C818.733,184.86 817.088,187.547 815.686,190.354C814.696,192.336 813.831,194.376 813.084,196.458L813.025,196.623L812.969,196.78C812.897,196.995 812.825,197.21 812.753,197.426C812.611,197.862 812.47,198.299 812.334,198.738C812.027,199.731 811.74,200.73 811.475,201.735C810.875,204.011 810.388,206.316 810.021,208.639C809.699,210.683 809.469,212.74 809.334,214.804C809.206,216.761 809.163,218.722 809.198,220.682C809.224,222.186 809.295,223.69 809.414,225.19C809.856,230.773 810.965,236.317 812.902,241.586L812.966,241.759C813.04,241.978 813.116,242.197 813.194,242.416C813.27,242.629 813.347,242.841 813.425,243.053C814.104,244.875 814.887,246.658 815.774,248.391C817.781,252.309 820.311,255.967 823.264,259.248C823.543,259.559 823.821,259.87 824.105,260.176C824.492,260.593 824.887,261.002 825.29,261.404C826.612,262.721 828.021,263.954 829.504,265.093C831.88,266.92 834.443,268.507 837.136,269.838C839.06,270.79 841.051,271.61 843.085,272.305C846.357,273.423 849.745,274.2 853.178,274.645C854.773,274.852 856.377,274.987 857.984,275.058C858.753,275.091 859.522,275.109 860.291,275.114C860.411,275.115 860.531,275.115 860.65,275.115L860.65,275.115ZM817.848,206.462L817.937,206.071C818.05,205.534 818.163,204.998 818.278,204.461C818.417,203.834 818.565,203.209 818.728,202.587C819.079,201.248 819.492,199.923 819.976,198.625C820.515,197.176 821.143,195.759 821.864,194.389C822.17,193.808 822.493,193.237 822.83,192.674C822.94,192.471 823.051,192.268 823.163,192.066C823.63,191.228 824.115,190.399 824.625,189.586C825.797,187.714 827.093,185.915 828.537,184.238C829.248,183.413 829.995,182.617 830.779,181.86C831.057,181.591 831.34,181.326 831.628,181.067C831.74,180.967 831.854,180.868 831.966,180.768C832.139,180.614 832.309,180.459 832.483,180.307C832.837,179.998 833.196,179.696 833.561,179.401C834.595,178.566 835.676,177.787 836.795,177.068C838.446,176.006 840.179,175.071 841.972,174.264C842.549,174.004 843.132,173.758 843.72,173.525C844.087,173.379 844.457,173.24 844.828,173.103C845.343,172.912 845.86,172.729 846.382,172.559C847.38,172.234 848.392,171.95 849.413,171.705C853.47,170.728 857.662,170.343 861.832,170.431C865.532,170.51 869.238,170.965 872.804,171.966C873.913,172.278 875.007,172.641 876.079,173.06C876.965,173.406 877.835,173.792 878.691,174.205C880.136,174.905 881.536,175.697 882.87,176.586C884.122,177.42 885.314,178.339 886.436,179.336C887.059,179.889 887.66,180.466 888.238,181.064C888.507,181.342 888.774,181.622 889.03,181.911C889.079,181.965 889.281,182.202 889.331,182.26C889.524,182.487 889.715,182.716 889.904,182.946C890.47,183.635 891.017,184.34 891.544,185.059C892.851,186.844 894.033,188.72 895.056,190.678C895.594,191.709 896.085,192.762 896.532,193.835C896.607,194 896.68,194.166 896.752,194.333C896.923,194.733 897.087,195.135 897.243,195.541C897.55,196.341 897.827,197.152 898.081,197.969C898.727,200.045 899.228,202.161 899.741,204.271L900.203,206.161L900.241,206.462C873.018,206.462 845.071,206.462 817.849,206.462L817.848,206.462Z" style="fill:rgb(0,159,227);"/>
        <path d="M955.924,275.115C958.675,275.112 961.428,274.947 964.147,274.512C965.059,274.366 965.967,274.19 966.867,273.981C967.397,273.858 967.923,273.721 968.447,273.576C968.596,273.545 968.745,273.514 968.895,273.482C969.498,273.35 970.098,273.206 970.693,273.044C971.797,272.745 972.887,272.392 973.957,271.988C975.367,271.456 976.743,270.834 978.075,270.127C978.806,269.739 979.521,269.324 980.224,268.887C980.381,268.783 980.537,268.678 980.693,268.572C981.273,268.172 981.843,267.759 982.398,267.325C983.451,266.501 984.454,265.61 985.39,264.655C986.395,263.628 987.324,262.528 988.17,261.366C988.703,260.634 989.212,259.882 989.652,259.09C989.913,258.621 990.153,258.14 990.371,257.65C991.476,255.164 992.023,252.462 992.235,249.76C992.273,249.282 992.3,248.804 992.318,248.325C992.34,247.743 992.348,247.161 992.345,246.58C992.34,245.645 992.311,244.71 992.25,243.777C992.14,242.081 991.93,240.389 991.571,238.727C991.263,237.304 990.845,235.9 990.272,234.561C990.136,234.244 989.993,233.932 989.839,233.624C989.743,233.431 989.642,233.24 989.54,233.05C989.491,232.909 989.441,232.769 989.389,232.629C989.267,232.301 989.136,231.977 988.995,231.657C988.691,230.971 988.343,230.305 987.955,229.663C986.947,227.997 985.673,226.499 984.224,225.2C983.28,224.353 982.258,223.593 981.202,222.894C979.615,221.843 977.933,220.938 976.195,220.166C975.472,219.845 974.74,219.546 973.999,219.27C973.77,219.185 973.539,219.101 973.308,219.02C973.129,218.957 972.95,218.895 972.771,218.83C972.551,218.75 972.33,218.671 972.109,218.594C969.646,217.732 967.139,217.001 964.644,216.24C964.295,216.133 963.947,216.025 963.598,215.917C963.253,215.808 962.909,215.699 962.564,215.588L962.223,215.478L961.907,215.374L955.084,213.421C954.837,213.359 954.59,213.296 954.343,213.232C954.085,213.165 953.828,213.096 953.57,213.027C951.972,212.591 950.382,212.123 948.79,211.666C943.2,209.944 940.201,208.376 937.504,206.077C936.347,205.091 935.366,203.899 934.491,202.651C934.209,202.248 933.941,201.834 933.691,201.409C933.55,201.17 933.414,200.928 933.287,200.68C933.154,200.421 933.031,200.157 932.916,199.89C932.442,198.787 932.111,197.625 931.874,196.45C931.561,194.894 931.411,193.306 931.368,191.72C931.341,190.72 931.355,189.72 931.444,188.723C931.605,186.933 932.003,185.156 932.74,183.512C932.94,183.067 933.164,182.633 933.412,182.212C933.608,181.882 933.821,181.562 934.04,181.247C934.33,180.828 934.633,180.418 934.947,180.016C936.252,178.347 937.748,176.819 939.44,175.542L939.54,175.468L939.66,175.38C939.786,175.297 939.911,175.215 940.038,175.134C940.524,174.826 941.019,174.532 941.524,174.256C942.939,173.481 944.426,172.837 945.961,172.34C946.761,172.081 947.574,171.864 948.396,171.686L948.499,171.664C948.632,171.624 948.765,171.586 948.898,171.548C949.049,171.506 949.2,171.464 949.352,171.424C949.708,171.331 950.065,171.243 950.425,171.162C952.419,170.715 954.457,170.46 956.498,170.362C957.449,170.316 958.401,170.312 959.353,170.326C960.216,170.339 961.079,170.368 961.941,170.417C963.59,170.509 965.237,170.67 966.869,170.927C968.384,171.164 969.888,171.485 971.358,171.925C971.912,172.091 972.459,172.276 973.001,172.477C973.129,172.526 973.256,172.576 973.383,172.624C973.715,172.751 974.047,172.875 974.378,173.002C975.121,173.292 975.86,173.591 976.592,173.906C978.024,174.521 979.432,175.194 980.803,175.938C981.95,176.561 983.071,177.234 984.157,177.96C984.81,178.397 985.448,178.855 986.075,179.329L987.476,180.333L991.876,174.38L990.565,173.385C990.411,173.262 990.257,173.14 990.102,173.018C989.953,172.901 989.803,172.785 989.653,172.669C988.985,172.161 988.307,171.665 987.614,171.19C986.268,170.267 984.874,169.412 983.443,168.628C981.964,167.818 980.444,167.084 978.896,166.416C977.923,165.997 976.938,165.606 975.945,165.235L975.697,165.143C975.621,165.115 975.546,165.086 975.469,165.06C975.406,165.038 975.062,164.932 975.007,164.915C974.764,164.84 974.521,164.768 974.276,164.698C973.446,164.461 972.607,164.252 971.764,164.067C969.185,163.501 966.559,163.16 963.927,162.967C962.108,162.834 960.285,162.773 958.461,162.767C955.173,162.756 951.874,162.97 948.644,163.611C947.822,163.774 947.007,163.967 946.198,164.187L946.012,164.239L945.806,164.297C945.608,164.347 945.41,164.398 945.213,164.45C944.394,164.671 943.583,164.919 942.783,165.203C941.088,165.803 939.444,166.55 937.887,167.452C937.121,167.896 936.377,168.378 935.659,168.896C935.339,169.127 935.026,169.368 934.716,169.612C934.535,169.732 934.535,169.732 934.355,169.854C934.041,170.07 933.731,170.291 933.426,170.52C932.92,170.9 932.429,171.298 931.952,171.714C930.388,173.08 928.992,174.636 927.795,176.333C927.468,176.797 927.155,177.271 926.858,177.755C926.495,178.348 926.154,178.953 925.848,179.577C925.173,180.954 924.649,182.403 924.257,183.884C923.798,185.611 923.517,187.385 923.397,189.168C923.335,190.101 923.321,191.036 923.337,191.971C923.349,192.66 923.376,193.349 923.422,194.037C923.455,194.531 923.497,195.025 923.55,195.518C923.844,198.27 924.465,201.019 925.641,203.537C925.877,204.041 926.135,204.534 926.415,205.015L926.454,205.083C927.634,206.936 928.803,208.832 930.359,210.386C937.509,217.523 945.083,218.854 952.802,221.317L959.672,223.283C960.003,223.369 960.333,223.455 960.662,223.543C960.994,223.632 961.324,223.722 961.655,223.813C963.463,224.317 965.259,224.859 967.047,225.429C967.554,225.591 968.061,225.755 968.568,225.92C968.749,225.979 969.607,226.261 969.782,226.32C969.809,226.329 970.043,226.415 970.076,226.427C970.215,226.478 970.354,226.53 970.492,226.583C972.364,227.294 974.188,228.139 975.916,229.151C976.505,229.497 977.082,229.863 977.646,230.248L977.757,230.324L977.897,230.422C978.036,230.533 978.175,230.645 978.313,230.758C978.703,231.082 979.085,231.416 979.453,231.764C980.556,232.806 981.555,233.968 982.351,235.263C982.629,235.716 982.879,236.185 983.104,236.667L983.138,236.741C983.195,236.845 983.194,236.845 983.249,236.949L983.316,237.078C983.491,237.432 983.649,237.793 983.789,238.162C984.118,239.036 984.349,239.946 984.519,240.864C984.714,241.919 984.827,242.987 984.896,244.057C984.942,244.78 984.966,245.503 984.976,246.227C984.984,246.874 984.984,247.521 984.955,248.168C984.941,248.501 984.92,248.833 984.891,249.165C984.714,251.223 984.249,253.288 983.25,255.112C982.999,255.57 982.714,256.008 982.4,256.425C982.345,256.498 982.295,256.576 982.243,256.652C982.169,256.761 982.159,256.773 982.083,256.882C981.786,257.302 981.479,257.714 981.156,258.115C980.47,258.965 979.721,259.765 978.905,260.49C978.248,261.074 977.548,261.609 976.809,262.086C976.514,262.276 976.212,262.455 975.906,262.627L975.818,262.676C975.711,262.747 975.602,262.815 975.494,262.884C975.369,262.961 975.369,262.961 975.244,263.036C974.947,263.212 974.646,263.381 974.34,263.542C973.438,264.015 972.502,264.42 971.55,264.783C970.86,265.046 970.162,265.288 969.459,265.514C968.846,265.71 968.229,265.897 967.611,266.076C967.413,266.133 967.185,266.198 966.987,266.253C966.866,266.287 966.746,266.327 966.623,266.355C966.589,266.363 965.959,266.475 965.896,266.486C965.451,266.564 965.006,266.639 964.561,266.71C963.139,266.935 961.71,267.118 960.276,267.242C957.007,267.525 953.713,267.495 950.452,267.123C947.062,266.736 943.719,265.98 940.484,264.899C939.758,264.656 939.037,264.397 938.322,264.123C937.695,263.883 937.072,263.631 936.456,263.363C935.392,262.9 934.348,262.393 933.325,261.846C930.312,260.233 927.488,258.272 924.889,256.054C923.923,255.229 922.992,254.366 922.087,253.473L920.641,252.118L915.582,258.041L916.759,259.209C917.683,260.078 918.625,260.925 919.595,261.742C921.188,263.083 922.847,264.346 924.57,265.516C926.55,266.86 928.614,268.08 930.746,269.167C931.952,269.781 933.18,270.351 934.424,270.884L934.581,270.951L934.72,271.009C934.925,271.087 935.131,271.164 935.336,271.241C936.183,271.553 937.035,271.852 937.893,272.132C939.769,272.744 941.672,273.274 943.596,273.708C945.968,274.244 948.372,274.637 950.793,274.869C952.213,275.005 953.637,275.083 955.063,275.108C955.35,275.113 955.637,275.115 955.924,275.115L955.924,275.115Z" style="fill:rgb(0,159,227);"/>
        <g>
            <path d="M641.911,355.166L650.453,355.166L660.227,316.615L664.253,355.166L673.599,355.166L691.113,316.542L687.399,355.166L695.795,355.166L700.59,301.72L688.762,301.72L671.159,341.147L667.076,301.72L655.686,301.72L641.911,355.166L641.911,355.166Z" style="fill:rgb(138,180,38);fill-rule:nonzero;"/>
            <path d="M706.375,331.871C703.027,350.855 710.753,355.528 721.997,355.528C736.6,355.528 743.011,348.445 745.701,333.404L751.039,301.716L742.496,301.716L737.026,332.674C735.147,343.407 731.564,347.569 723.168,347.569C714.99,347.569 712.792,344.064 714.83,332.674L720.3,301.716L711.757,301.716L706.375,331.871L706.375,331.871Z" style="fill:rgb(138,180,38);fill-rule:nonzero;"/>
            <path d="M750.189,355.166L758.732,355.166L765.348,317.564L781.805,355.166L790.128,355.166L799.596,301.72L791.126,301.72L784.431,339.614L768.054,301.72L759.657,301.72L750.189,355.166L750.189,355.166Z" style="fill:rgb(138,180,38);fill-rule:nonzero;"/>
            <path d="M799.18,355.166L807.649,355.166L817.117,301.72L808.647,301.72L799.18,355.166Z" style="fill:rgb(138,180,38);fill-rule:nonzero;"/>
            <path d="M819.85,327.493C817.245,341.876 819.473,355.53 833.125,355.603C839.987,355.676 846.124,355.457 851.852,353.705L852.998,347.06C846.2,347.499 840.499,347.791 835.683,347.645C827.587,347.207 826.036,340.343 828.302,328.442C831.736,308.801 838.081,309.166 842.828,309.093C849.985,309.02 858.288,310.115 859.308,310.261L860.527,303.617C855.224,302.157 848.745,301.135 842.539,301.135C828.009,301.135 822.943,310.48 819.85,327.493L819.85,327.493Z" style="fill:rgb(138,180,38);fill-rule:nonzero;"/>
            <path d="M858.615,355.166L867.085,355.166L870.999,333.262L891.954,333.262L888.04,355.166L896.51,355.166L905.977,301.72L897.508,301.72L893.269,325.376L872.314,325.376L876.553,301.72L868.083,301.72L858.615,355.166Z" style="fill:rgb(138,180,38);fill-rule:nonzero;"/>
        </g>
    </g>
</svg>
